<svg version="1.1" id="Layer_1" xmlns="http://www.w3.org/2000/svg" xmlns:xlink="http://www.w3.org/1999/xlink" x="0px" y="0px"
	 width="100%" viewBox="0 0 281 179" enable-background="new 0 0 281 179" xml:space="preserve">
<path fill="#FFFFFF" opacity="1.000000" stroke="none" 
	d="
M187.000000,180.000000 
	C124.666672,180.000000 62.833347,180.000000 1.000017,180.000000 
	C1.000011,120.333351 1.000011,60.666695 1.000005,1.000033 
	C94.666634,1.000022 188.333267,1.000022 281.999939,1.000011 
	C281.999939,60.666637 281.999939,120.333275 281.999969,179.999954 
	C250.500000,180.000000 219.000000,180.000000 187.000000,180.000000 
M212.263809,28.339840 
	C212.150192,28.200676 212.036575,28.061510 211.724503,27.219152 
	C195.044510,20.284586 177.683746,16.302067 159.674133,14.938007 
	C155.868225,14.649747 151.244339,14.733780 148.501923,12.658262 
	C137.332626,4.205119 121.605606,3.646840 110.639061,10.763139 
	C109.825256,11.291227 108.357117,11.383948 107.415428,11.050798 
	C100.259933,8.519341 93.133415,7.006815 85.349892,7.875172 
	C72.503815,9.308324 63.976013,16.080935 58.241287,27.230062 
	C57.309998,29.040623 55.831215,31.026522 54.089195,31.891069 
	C39.728645,39.018085 26.942236,48.169483 17.423363,61.179008 
	C4.805280,78.424248 1.729180,97.084396 11.022357,116.906830 
	C19.185369,134.318604 33.604736,145.477356 49.935947,154.389084 
	C75.464348,168.319595 103.293579,173.613388 131.976440,174.912338 
	C147.744888,175.626434 163.436859,174.098206 178.947632,171.005951 
	C199.926880,166.823502 219.900345,160.108688 237.678406,147.821671 
	C239.665619,146.448242 241.714737,145.160995 243.661636,143.733536 
	C245.499344,142.386139 247.236816,140.902344 249.024460,139.486221 
	C250.841858,138.046539 252.666641,136.616196 254.488190,135.181763 
	C254.102097,134.536179 253.715988,133.890610 253.329895,133.245041 
	C242.034164,140.591599 230.410843,135.638504 218.909973,134.858109 
	C223.004837,134.166351 227.196136,133.952820 231.205460,134.706879 
	C243.661316,137.049652 257.576080,130.791641 263.779938,121.143639 
	C271.142792,109.693230 273.314667,96.544250 269.803802,83.272934 
	C268.005066,76.473419 266.445190,70.435677 271.708374,64.681473 
	C271.904999,64.466515 271.884552,64.061813 271.991241,63.754532 
	C273.658691,58.952187 275.031250,54.019207 277.078033,49.384056 
	C279.559967,43.763500 276.136871,36.720646 271.384766,35.394039 
	C265.547180,33.764416 262.554108,30.070341 259.694946,25.389078 
	C256.976135,20.937643 251.194946,19.313265 246.049088,20.979197 
	C242.862793,22.010740 239.521027,24.320652 236.544708,23.910608 
	C227.813202,22.707674 220.061676,24.723238 212.263809,28.339840 
z"/>
<path fill="#000000" opacity="1.000000" stroke="none" 
	d="
M212.567383,28.785160 
	C220.061676,24.723238 227.813202,22.707674 236.544708,23.910608 
	C239.521027,24.320652 242.862793,22.010740 246.049088,20.979197 
	C251.194946,19.313265 256.976135,20.937643 259.694946,25.389078 
	C262.554108,30.070341 265.547180,33.764416 271.384766,35.394039 
	C276.136871,36.720646 279.559967,43.763500 277.078033,49.384056 
	C275.031250,54.019207 273.658691,58.952187 271.991241,63.754532 
	C271.884552,64.061813 271.904999,64.466515 271.708374,64.681473 
	C266.445190,70.435677 268.005066,76.473419 269.803802,83.272934 
	C273.314667,96.544250 271.142792,109.693230 263.779938,121.143639 
	C257.576080,130.791641 243.661316,137.049652 231.205460,134.706879 
	C227.196136,133.952820 223.004837,134.166351 218.909973,134.858109 
	C230.410843,135.638504 242.034164,140.591599 253.329895,133.245041 
	C253.715988,133.890610 254.102097,134.536179 254.488190,135.181763 
	C252.666641,136.616196 250.841858,138.046539 249.024460,139.486221 
	C247.236816,140.902344 245.499344,142.386139 243.661636,143.733536 
	C241.714737,145.160995 239.665619,146.448242 237.678406,147.821671 
	C219.900345,160.108688 199.926880,166.823502 178.947632,171.005951 
	C163.436859,174.098206 147.744888,175.626434 131.976440,174.912338 
	C103.293579,173.613388 75.464348,168.319595 49.935947,154.389084 
	C33.604736,145.477356 19.185369,134.318604 11.022357,116.906830 
	C1.729180,97.084396 4.805280,78.424248 17.423363,61.179008 
	C26.942236,48.169483 39.728645,39.018085 54.089195,31.891069 
	C55.831215,31.026522 57.309998,29.040623 58.241287,27.230062 
	C63.976013,16.080935 72.503815,9.308324 85.349892,7.875172 
	C93.133415,7.006815 100.259933,8.519341 107.415428,11.050798 
	C108.357117,11.383948 109.825256,11.291227 110.639061,10.763139 
	C121.605606,3.646840 137.332626,4.205119 148.501923,12.658262 
	C151.244339,14.733780 155.868225,14.649747 159.674133,14.938007 
	C177.683746,16.302067 195.044510,20.284586 211.440933,27.610817 
	C210.610321,28.510382 210.063278,29.018280 209.516235,29.526178 
	C209.713760,29.779957 209.911270,30.033735 210.108780,30.287512 
	C210.928314,29.786728 211.747849,29.285942 212.567383,28.785160 
M83.608345,151.000168 
	C87.180359,151.333450 90.754013,151.650238 94.323631,152.007462 
	C95.935066,152.168716 97.608856,152.182098 99.134125,152.652466 
	C109.592133,155.877396 120.010429,157.004120 131.163925,156.397797 
	C143.924652,155.704071 155.069046,148.066132 168.034882,149.423889 
	C170.361526,149.667526 172.803482,148.697510 175.203674,148.372726 
	C181.844620,147.474091 187.407074,142.855057 194.775833,143.753708 
	C199.757767,144.361252 205.127426,143.043686 210.125336,141.794037 
	C213.111740,141.047333 215.715302,138.769455 218.490952,137.179855 
	C218.260574,136.708511 218.030197,136.237152 217.799820,135.765808 
	C210.763458,140.272293 202.975250,141.757126 194.839539,142.028137 
	C190.066391,142.187149 184.930481,140.608231 180.902954,144.913345 
	C180.159851,145.707672 178.516907,145.668488 177.284348,145.995346 
	C166.766449,148.784348 155.471664,146.518723 145.157791,151.753174 
	C140.795456,153.967133 134.931061,153.028976 129.873795,154.107162 
	C120.106354,156.189545 110.881638,154.104355 101.654785,151.306229 
	C99.671562,150.704788 97.597748,150.100143 95.552864,150.053040 
	C82.318886,149.748245 70.084335,146.387543 59.152603,138.719437 
	C58.531971,138.284088 57.585716,138.312958 56.791012,138.125763 
	C64.142174,145.272736 73.233780,148.555023 83.608345,151.000168 
M234.250549,63.977276 
	C232.836868,65.109749 230.270798,66.175194 230.200378,67.385788 
	C229.804520,74.191795 230.009491,81.032761 230.009491,87.854385 
	C238.099716,87.504593 248.271545,69.785500 246.406601,57.367722 
	C242.425247,59.523945 238.679443,61.552586 234.250549,63.977276 
M109.447060,23.999990 
	C105.401428,22.597492 101.443710,20.811069 97.294502,19.860847 
	C81.699348,16.289354 70.124733,22.029219 68.113998,39.009811 
	C67.785683,41.782463 66.477501,42.294056 64.393776,43.069897 
	C60.814983,44.402412 57.382645,46.128265 53.888824,47.688999 
	C54.107784,48.184673 54.326744,48.680347 54.545700,49.176022 
	C59.826881,47.100800 65.108063,45.025581 70.411903,42.941460 
	C69.212051,36.694500 72.617500,28.364428 77.386246,24.923529 
	C86.428032,18.399416 95.322289,20.451857 104.373512,24.814690 
	C108.185242,26.652010 112.011650,27.276876 115.612091,23.916725 
	C122.049088,17.909313 130.578598,17.359257 137.811447,22.312410 
	C140.179886,23.934349 142.508011,25.615173 144.854568,27.269066 
	C138.158157,16.372820 125.522591,13.653474 116.086395,20.944235 
	C114.380630,22.262175 112.223778,22.996286 109.447060,23.999990 
M255.501251,70.004028 
	C256.015686,69.196327 256.709381,68.450096 257.011261,67.569527 
	C257.960266,64.801361 258.761963,61.982700 259.620697,59.183590 
	C256.517181,58.639645 253.413651,58.095699 251.023651,57.676811 
	C250.221222,62.433479 249.926056,66.515549 248.777161,70.341248 
	C247.616425,74.206337 245.609604,77.817345 243.513275,82.586563 
	C250.210876,80.238312 252.657730,75.457458 255.501251,70.004028 
M220.465546,71.020767 
	C216.348389,72.589485 212.231232,74.158203 208.359680,75.633339 
	C208.570648,79.037560 208.790543,82.412331 208.983459,85.788643 
	C209.055161,87.043427 209.063568,88.301834 209.100830,89.558586 
	C210.500519,89.099022 212.582764,89.069061 213.187119,88.108887 
	C216.635513,82.630234 219.731873,76.929993 222.947845,71.305054 
	C222.309845,71.024475 221.671844,70.743896 220.465546,71.020767 
M163.474609,75.977531 
	C164.668930,78.876961 165.863235,81.776390 167.139389,84.874496 
	C172.641037,84.536537 177.374832,77.248283 176.599808,69.000755 
	C175.171341,69.000755 173.567123,68.611954 172.266617,69.075378 
	C168.699707,70.346405 164.071014,70.240662 163.474609,75.977531 
M186.983185,70.532120 
	C186.526382,75.611382 186.069580,80.690643 185.604538,85.861610 
	C192.663696,85.698334 197.759842,81.266785 199.658340,74.446037 
	C195.669067,73.284500 191.682724,72.123810 186.983185,70.532120 
M216.998825,103.942696 
	C216.488098,100.713928 215.587204,101.501343 213.813705,103.341072 
	C210.620712,106.653320 207.168060,109.737755 203.626297,112.679459 
	C202.329697,113.756371 200.471573,114.157211 197.849564,115.318077 
	C201.910217,116.022896 204.705673,116.739479 207.539490,116.957603 
	C216.899277,117.678017 217.000000,117.516518 217.000000,107.836418 
	C217.000000,106.838600 216.999954,105.840790 216.998825,103.942696 
M226.976624,111.536232 
	C224.790863,113.241524 222.605118,114.946808 220.419357,116.652100 
	C225.906616,115.301033 233.090836,120.587128 236.583679,113.921684 
	C238.130112,110.970581 238.464493,105.541733 235.264130,101.606934 
	C232.375031,105.097977 229.928116,108.054695 226.976624,111.536232 
M94.005287,43.259560 
	C94.413498,46.422775 93.905640,50.151825 95.432625,52.624004 
	C98.095535,56.935215 106.584465,57.973480 111.217583,51.279068 
	C109.079506,50.645393 107.001953,49.423370 105.078300,49.630535 
	C103.165550,49.836521 101.407471,51.478821 99.581566,52.491283 
	C99.350822,52.148190 99.120079,51.805096 98.889336,51.462002 
	C99.875511,49.758862 100.861694,48.055725 102.558243,45.125782 
	C99.373924,44.125378 96.723686,43.292763 94.005287,43.259560 
M114.039581,120.551598 
	C117.019745,119.627449 120.964020,119.555656 122.730011,117.558098 
	C124.821472,115.192390 119.960648,106.840919 117.284164,105.642090 
	C115.501511,108.826576 113.799561,111.924126 112.035576,114.985947 
	C111.445076,116.010910 110.696274,116.944672 110.019836,117.920120 
	C111.147133,118.628151 112.274429,119.336182 114.039581,120.551598 
M163.048416,33.563351 
	C158.627029,32.525013 154.205627,31.486677 149.784241,30.448339 
	C151.159302,32.142662 152.926361,33.606133 154.872589,33.905727 
	C162.890366,35.139957 171.067856,35.515472 178.986893,37.165359 
	C187.968872,39.036701 196.412750,37.570232 204.825424,34.895748 
	C206.268753,34.436901 207.351074,32.842457 208.600143,31.772596 
	C200.196289,35.520546 191.600082,36.467651 182.828934,35.941933 
	C176.487793,35.561867 170.178772,34.645813 163.048416,33.563351 
M86.473518,87.980247 
	C88.123405,91.544685 89.815948,95.057594 94.143845,94.926262 
	C95.359123,90.643333 96.491005,86.654320 97.709328,82.360641 
	C96.934349,82.018013 95.840614,81.270042 94.650238,81.053589 
	C89.260994,80.073563 85.255287,83.066414 86.473518,87.980247 
M191.979141,112.011375 
	C190.948288,106.616196 189.917435,101.221016 188.777435,95.254623 
	C184.932144,100.208893 181.959290,104.039124 179.091888,107.733498 
	C182.805511,109.224792 187.250443,111.009758 191.979141,112.011375 
M261.059509,65.470703 
	C259.353760,68.816216 257.648041,72.161720 255.842377,75.703224 
	C262.328857,75.208344 270.703369,64.269341 270.487579,57.121666 
	C266.401184,58.427704 261.751099,59.091854 261.059509,65.470703 
M154.975479,84.113243 
	C154.975479,82.222046 154.975479,80.330841 154.975479,78.238327 
	C151.081970,80.544388 147.555771,82.632881 144.434448,84.481590 
	C145.211288,88.133812 145.945526,91.585716 146.679749,95.037621 
	C147.095062,95.216690 147.510391,95.395752 147.925705,95.574814 
	C150.169388,92.007767 152.413071,88.440727 154.975479,84.113243 
M169.175339,103.989334 
	C169.974228,103.989334 170.773117,103.989334 172.888062,103.989334 
	C168.505417,99.012596 164.796448,94.800858 161.173645,90.686958 
	C159.507156,95.470085 158.191513,99.246223 157.015900,102.620491 
	C160.619949,103.015060 164.483643,103.438049 169.175339,103.989334 
M111.041229,85.718781 
	C109.753853,89.033424 108.466476,92.348061 107.087143,95.899452 
	C113.677567,96.490891 117.326836,92.646927 120.999718,88.069847 
	C117.584740,87.008667 114.584099,86.076233 111.041229,85.718781 
M130.373459,88.000023 
	C129.251846,88.519981 127.289070,88.879868 127.154396,89.587624 
	C126.574371,92.635857 126.530716,95.786156 126.286369,98.969406 
	C132.218307,97.743652 135.986557,93.494850 136.850632,86.984489 
	C134.908066,87.337616 133.086395,87.668762 130.373459,88.000023 
M39.982433,76.981155 
	C39.145267,69.812386 42.157787,67.101883 53.775448,64.465912 
	C52.916306,60.914623 52.062046,57.383518 51.207787,53.852417 
	C50.137310,55.838924 49.602654,57.835083 50.246525,59.320343 
	C51.669308,62.602367 50.741779,63.286438 47.437923,64.146950 
	C38.348076,66.514473 33.908966,74.771935 41.247910,85.754105 
	C40.709419,82.321205 40.354084,80.055916 39.982433,76.981155 
M104.956673,115.432976 
	C105.504578,115.881569 106.052483,116.330170 107.298225,117.350113 
	C104.932426,111.086975 102.896835,105.697998 100.426842,99.159012 
	C98.645515,103.217400 97.079613,106.785011 95.594421,110.168716 
	C99.062523,112.046173 101.731888,113.491241 104.956673,115.432976 
M82.679604,109.993690 
	C85.634338,109.513931 88.589066,109.034172 91.253952,108.601471 
	C90.191895,105.543671 89.107437,102.421402 88.017654,99.283806 
	C83.721352,101.360527 81.494858,105.299889 82.679604,109.993690 
M142.447235,103.964935 
	C140.604919,102.474586 138.762604,100.984245 136.747528,99.354149 
	C135.794891,104.221817 135.062256,107.965408 134.307327,111.822853 
	C137.832153,110.058159 141.299667,108.322159 145.460388,106.239105 
	C144.340485,105.439293 143.659225,104.952766 142.447235,103.964935 
M240.762558,115.964027 
	C245.911636,113.995041 247.424530,111.343544 245.598923,107.147308 
	C245.225586,106.289154 244.283936,105.318787 243.445847,105.139175 
	C242.807449,105.002357 241.359375,105.927628 241.236374,106.566223 
	C240.664200,109.537025 240.427841,112.572510 240.762558,115.964027 
M249.030960,109.452194 
	C248.411118,111.039764 247.791290,112.627342 247.014023,114.618088 
	C249.408707,114.315056 251.231766,114.620865 252.089737,113.851044 
	C253.402908,112.672783 254.627747,110.809952 254.793839,109.129364 
	C254.921051,107.842407 253.354080,106.388000 252.540665,105.008064 
	C251.558853,106.312813 250.577057,107.617561 249.030960,109.452194 
M43.998528,121.250610 
	C43.466537,115.984047 39.376278,114.158554 35.431995,111.883080 
	C35.225498,112.579178 34.965675,113.019524 35.075119,113.149910 
	C37.708195,116.286591 40.376270,119.394066 43.078552,122.471230 
	C43.132542,122.532700 43.670002,122.169586 43.998528,121.250610 
M54.085968,134.627396 
	C52.045509,132.599869 50.005054,130.572327 47.964596,128.544800 
	C47.524773,129.041275 47.084953,129.537750 46.645130,130.034225 
	C49.651802,132.757629 51.775902,136.484528 56.477116,137.328552 
	C55.874775,136.592361 55.272438,135.856171 54.085968,134.627396 
M145.869614,28.249086 
	C146.867889,28.868441 147.866165,29.487797 148.864441,30.107151 
	C149.077652,29.587799 149.290863,29.068445 149.504074,28.549093 
	C148.209366,28.170507 146.914673,27.791922 145.869614,28.249086 
z"/>
<path fill="#FFFFFF" opacity="1.000000" stroke="none" 
	d="
M83.167610,150.999146 
	C73.233780,148.555023 64.142174,145.272736 56.791012,138.125763 
	C57.585716,138.312958 58.531971,138.284088 59.152603,138.719437 
	C70.084335,146.387543 82.318886,149.748245 95.552864,150.053040 
	C97.597748,150.100143 99.671562,150.704788 101.654785,151.306229 
	C110.881638,154.104355 120.106354,156.189545 129.873795,154.107162 
	C134.931061,153.028976 140.795456,153.967133 145.157791,151.753174 
	C155.471664,146.518723 166.766449,148.784348 177.284348,145.995346 
	C178.516907,145.668488 180.159851,145.707672 180.902954,144.913345 
	C184.930481,140.608231 190.066391,142.187149 194.839539,142.028137 
	C202.975250,141.757126 210.763458,140.272293 217.799820,135.765808 
	C218.030197,136.237152 218.260574,136.708511 218.490952,137.179855 
	C215.715302,138.769455 213.111740,141.047333 210.125336,141.794037 
	C205.127426,143.043686 199.757767,144.361252 194.775833,143.753708 
	C187.407074,142.855057 181.844620,147.474091 175.203674,148.372726 
	C172.803482,148.697510 170.361526,149.667526 168.034882,149.423889 
	C155.069046,148.066132 143.924652,155.704071 131.163925,156.397797 
	C120.010429,157.004120 109.592133,155.877396 99.134125,152.652466 
	C97.608856,152.182098 95.935066,152.168716 94.323631,152.007462 
	C90.754013,151.650238 87.180359,151.333450 83.167610,150.999146 
z"/>
<path fill="#FFFFFF" opacity="1.000000" stroke="none" 
	d="
M234.592102,63.779251 
	C238.679443,61.552586 242.425247,59.523945 246.406601,57.367722 
	C248.271545,69.785500 238.099716,87.504593 230.009491,87.854385 
	C230.009491,81.032761 229.804520,74.191795 230.200378,67.385788 
	C230.270798,66.175194 232.836868,65.109749 234.592102,63.779251 
z"/>
<path fill="#FFFFFF" opacity="1.000000" stroke="none" 
	d="
M109.861122,23.999962 
	C112.223778,22.996286 114.380630,22.262175 116.086395,20.944235 
	C125.522591,13.653474 138.158157,16.372820 144.854568,27.269066 
	C142.508011,25.615173 140.179886,23.934349 137.811447,22.312410 
	C130.578598,17.359257 122.049088,17.909313 115.612091,23.916725 
	C112.011650,27.276876 108.185242,26.652010 104.373512,24.814690 
	C95.322289,20.451857 86.428032,18.399416 77.386246,24.923529 
	C72.617500,28.364428 69.212051,36.694500 70.411903,42.941460 
	C65.108063,45.025581 59.826881,47.100800 54.545700,49.176022 
	C54.326744,48.680347 54.107784,48.184673 53.888824,47.688999 
	C57.382645,46.128265 60.814983,44.402412 64.393776,43.069897 
	C66.477501,42.294056 67.785683,41.782463 68.113998,39.009811 
	C70.124733,22.029219 81.699348,16.289354 97.294502,19.860847 
	C101.443710,20.811069 105.401428,22.597492 109.861122,23.999962 
z"/>
<path fill="#FFFFFF" opacity="1.000000" stroke="none" 
	d="
M255.269318,70.307739 
	C252.657730,75.457458 250.210876,80.238312 243.513275,82.586563 
	C245.609604,77.817345 247.616425,74.206337 248.777161,70.341248 
	C249.926056,66.515549 250.221222,62.433479 251.023651,57.676811 
	C253.413651,58.095699 256.517181,58.639645 259.620697,59.183590 
	C258.761963,61.982700 257.960266,64.801361 257.011261,67.569527 
	C256.709381,68.450096 256.015686,69.196327 255.269318,70.307739 
z"/>
<path fill="#FFFFFF" opacity="1.000000" stroke="none" 
	d="
M220.749695,70.742050 
	C221.671844,70.743896 222.309845,71.024475 222.947845,71.305054 
	C219.731873,76.929993 216.635513,82.630234 213.187119,88.108887 
	C212.582764,89.069061 210.500519,89.099022 209.100830,89.558586 
	C209.063568,88.301834 209.055161,87.043427 208.983459,85.788643 
	C208.790543,82.412331 208.570648,79.037560 208.359680,75.633339 
	C212.231232,74.158203 216.348389,72.589485 220.749695,70.742050 
z"/>
<path fill="#FFFFFF" opacity="1.000000" stroke="none" 
	d="
M163.255844,75.643860 
	C164.071014,70.240662 168.699707,70.346405 172.266617,69.075378 
	C173.567123,68.611954 175.171341,69.000755 176.599808,69.000755 
	C177.374832,77.248283 172.641037,84.536537 167.139389,84.874496 
	C165.863235,81.776390 164.668930,78.876961 163.255844,75.643860 
z"/>
<path fill="#FFFFFF" opacity="1.000000" stroke="none" 
	d="
M187.339783,70.747620 
	C191.682724,72.123810 195.669067,73.284500 199.658340,74.446037 
	C197.759842,81.266785 192.663696,85.698334 185.604538,85.861610 
	C186.069580,80.690643 186.526382,75.611382 187.339783,70.747620 
z"/>
<path fill="#FFFFFF" opacity="1.000000" stroke="none" 
	d="
M216.999374,104.392838 
	C216.999954,105.840790 217.000000,106.838600 217.000000,107.836418 
	C217.000000,117.516518 216.899277,117.678017 207.539490,116.957603 
	C204.705673,116.739479 201.910217,116.022896 197.849564,115.318077 
	C200.471573,114.157211 202.329697,113.756371 203.626297,112.679459 
	C207.168060,109.737755 210.620712,106.653320 213.813705,103.341072 
	C215.587204,101.501343 216.488098,100.713928 216.999374,104.392838 
z"/>
<path fill="#FFFFFF" opacity="1.000000" stroke="none" 
	d="
M227.228912,111.273819 
	C229.928116,108.054695 232.375031,105.097977 235.264130,101.606934 
	C238.464493,105.541733 238.130112,110.970581 236.583679,113.921684 
	C233.090836,120.587128 225.906616,115.301033 220.419357,116.652100 
	C222.605118,114.946808 224.790863,113.241524 227.228912,111.273819 
z"/>
<path fill="#FFFFFF" opacity="1.000000" stroke="none" 
	d="
M94.039368,42.859856 
	C96.723686,43.292763 99.373924,44.125378 102.558243,45.125782 
	C100.861694,48.055725 99.875511,49.758862 98.889336,51.462002 
	C99.120079,51.805096 99.350822,52.148190 99.581566,52.491283 
	C101.407471,51.478821 103.165550,49.836521 105.078300,49.630535 
	C107.001953,49.423370 109.079506,50.645393 111.217583,51.279068 
	C106.584465,57.973480 98.095535,56.935215 95.432625,52.624004 
	C93.905640,50.151825 94.413498,46.422775 94.039368,42.859856 
z"/>
<path fill="#FFFFFF" opacity="1.000000" stroke="none" 
	d="
M113.720657,120.297905 
	C112.274429,119.336182 111.147133,118.628151 110.019836,117.920120 
	C110.696274,116.944672 111.445076,116.010910 112.035576,114.985947 
	C113.799561,111.924126 115.501511,108.826576 117.284164,105.642090 
	C119.960648,106.840919 124.821472,115.192390 122.730011,117.558098 
	C120.964020,119.555656 117.019745,119.627449 113.720657,120.297905 
z"/>
<path fill="#FFFFFF" opacity="1.000000" stroke="none" 
	d="
M163.451935,33.766071 
	C170.178772,34.645813 176.487793,35.561867 182.828934,35.941933 
	C191.600082,36.467651 200.196289,35.520546 208.600143,31.772596 
	C207.351074,32.842457 206.268753,34.436901 204.825424,34.895748 
	C196.412750,37.570232 187.968872,39.036701 178.986893,37.165359 
	C171.067856,35.515472 162.890366,35.139957 154.872589,33.905727 
	C152.926361,33.606133 151.159302,32.142662 149.784241,30.448339 
	C154.205627,31.486677 158.627029,32.525013 163.451935,33.766071 
z"/>
<path fill="#FFFFFF" opacity="1.000000" stroke="none" 
	d="
M86.254456,87.666626 
	C85.255287,83.066414 89.260994,80.073563 94.650238,81.053589 
	C95.840614,81.270042 96.934349,82.018013 97.709328,82.360641 
	C96.491005,86.654320 95.359123,90.643333 94.143845,94.926262 
	C89.815948,95.057594 88.123405,91.544685 86.254456,87.666626 
z"/>
<path fill="#FFFFFF" opacity="1.000000" stroke="none" 
	d="
M191.837250,112.403046 
	C187.250443,111.009758 182.805511,109.224792 179.091888,107.733498 
	C181.959290,104.039124 184.932144,100.208893 188.777435,95.254623 
	C189.917435,101.221016 190.948288,106.616196 191.837250,112.403046 
z"/>
<path fill="#FFFFFF" opacity="1.000000" stroke="none" 
	d="
M261.340393,65.187119 
	C261.751099,59.091854 266.401184,58.427704 270.486603,57.120544 
	C270.703369,64.269341 262.328857,75.208344 255.842377,75.703224 
	C257.648041,72.161720 259.353760,68.816216 261.340393,65.187119 
z"/>
<path fill="#FFFFFF" opacity="1.000000" stroke="none" 
	d="
M154.816116,84.493462 
	C152.413071,88.440727 150.169388,92.007767 147.925705,95.574814 
	C147.510391,95.395752 147.095062,95.216690 146.679749,95.037621 
	C145.945526,91.585716 145.211288,88.133812 144.434448,84.481590 
	C147.555771,82.632881 151.081970,80.544388 154.975479,78.238327 
	C154.975479,80.330841 154.975479,82.222046 154.816116,84.493462 
z"/>
<path fill="#FFFFFF" opacity="1.000000" stroke="none" 
	d="
M168.761337,103.925186 
	C164.483643,103.438049 160.619949,103.015060 157.015900,102.620491 
	C158.191513,99.246223 159.507156,95.470085 161.173645,90.686958 
	C164.796448,94.800858 168.505417,99.012596 172.888062,103.989334 
	C170.773117,103.989334 169.974228,103.989334 168.761337,103.925186 
z"/>
<path fill="#FFFFFF" opacity="1.000000" stroke="none" 
	d="
M111.312347,85.431290 
	C114.584099,86.076233 117.584740,87.008667 120.999718,88.069847 
	C117.326836,92.646927 113.677567,96.490891 107.087143,95.899452 
	C108.466476,92.348061 109.753853,89.033424 111.312347,85.431290 
z"/>
<path fill="#FFFFFF" opacity="1.000000" stroke="none" 
	d="
M130.819092,87.999969 
	C133.086395,87.668762 134.908066,87.337616 136.850632,86.984489 
	C135.986557,93.494850 132.218307,97.743652 126.286369,98.969406 
	C126.530716,95.786156 126.574371,92.635857 127.154396,89.587624 
	C127.289070,88.879868 129.251846,88.519981 130.819092,87.999969 
z"/>
<path fill="#FFFFFF" opacity="1.000000" stroke="none" 
	d="
M39.990589,77.385887 
	C40.354084,80.055916 40.709419,82.321205 41.247910,85.754105 
	C33.908966,74.771935 38.348076,66.514473 47.437923,64.146950 
	C50.741779,63.286438 51.669308,62.602367 50.246525,59.320343 
	C49.602654,57.835083 50.137310,55.838924 51.207787,53.852417 
	C52.062046,57.383518 52.916306,60.914623 53.775448,64.465912 
	C42.157787,67.101883 39.145267,69.812386 39.990589,77.385887 
z"/>
<path fill="#FFFFFF" opacity="1.000000" stroke="none" 
	d="
M104.678970,115.184639 
	C101.731888,113.491241 99.062523,112.046173 95.594421,110.168716 
	C97.079613,106.785011 98.645515,103.217400 100.426842,99.159012 
	C102.896835,105.697998 104.932426,111.086975 107.298225,117.350113 
	C106.052483,116.330170 105.504578,115.881569 104.678970,115.184639 
z"/>
<path fill="#FFFFFF" opacity="1.000000" stroke="none" 
	d="
M82.261536,109.982315 
	C81.494858,105.299889 83.721352,101.360527 88.017654,99.283806 
	C89.107437,102.421402 90.191895,105.543671 91.253952,108.601471 
	C88.589066,109.034172 85.634338,109.513931 82.261536,109.982315 
z"/>
<path fill="#FFFFFF" opacity="1.000000" stroke="none" 
	d="
M142.712616,104.215584 
	C143.659225,104.952766 144.340485,105.439293 145.460388,106.239105 
	C141.299667,108.322159 137.832153,110.058159 134.307327,111.822853 
	C135.062256,107.965408 135.794891,104.221817 136.747528,99.354149 
	C138.762604,100.984245 140.604919,102.474586 142.712616,104.215584 
z"/>
<path fill="#FFFFFF" opacity="1.000000" stroke="none" 
	d="
M240.416962,115.774437 
	C240.427841,112.572510 240.664200,109.537025 241.236374,106.566223 
	C241.359375,105.927628 242.807449,105.002357 243.445847,105.139175 
	C244.283936,105.318787 245.225586,106.289154 245.598923,107.147308 
	C247.424530,111.343544 245.911636,113.995041 240.416962,115.774437 
z"/>
<path fill="#FFFFFF" opacity="1.000000" stroke="none" 
	d="
M249.313110,109.187256 
	C250.577057,107.617561 251.558853,106.312813 252.540665,105.008064 
	C253.354080,106.388000 254.921051,107.842407 254.793839,109.129364 
	C254.627747,110.809952 253.402908,112.672783 252.089737,113.851044 
	C251.231766,114.620865 249.408707,114.315056 247.014023,114.618088 
	C247.791290,112.627342 248.411118,111.039764 249.313110,109.187256 
z"/>
<path fill="#FFFFFF" opacity="1.000000" stroke="none" 
	d="
M43.990215,121.627579 
	C43.670002,122.169586 43.132542,122.532700 43.078552,122.471230 
	C40.376270,119.394066 37.708195,116.286591 35.075119,113.149910 
	C34.965675,113.019524 35.225498,112.579178 35.431995,111.883080 
	C39.376278,114.158554 43.466537,115.984047 43.990215,121.627579 
z"/>
<path fill="#FFFFFF" opacity="1.000000" stroke="none" 
	d="
M54.378033,134.873688 
	C55.272438,135.856171 55.874775,136.592361 56.477116,137.328552 
	C51.775902,136.484528 49.651802,132.757629 46.645130,130.034225 
	C47.084953,129.537750 47.524773,129.041275 47.964596,128.544800 
	C50.005054,130.572327 52.045509,132.599869 54.378033,134.873688 
z"/>
<path fill="#FFFFFF" opacity="1.000000" stroke="none" 
	d="
M145.744781,27.831211 
	C146.914673,27.791922 148.209366,28.170507 149.504074,28.549093 
	C149.290863,29.068445 149.077652,29.587799 148.864441,30.107151 
	C147.866165,29.487797 146.867889,28.868441 145.744781,27.831211 
z"/>
<path fill="#FFFFFF" opacity="1.000000" stroke="none" 
	d="
M212.415588,28.562500 
	C211.747849,29.285942 210.928314,29.786728 210.108780,30.287512 
	C209.911270,30.033735 209.713760,29.779957 209.516235,29.526178 
	C210.063278,29.018280 210.610321,28.510382 211.540161,27.962412 
	C212.036575,28.061510 212.150192,28.200676 212.415588,28.562500 
z"/>
</svg>